<svg xmlns="http://www.w3.org/2000/svg" width="20" height="20" viewBox="0 0 20 20">
    <g fill="#4C69D7" fill-rule="nonzero">
        <circle cx="15" cy="5" r="1"/>
        <path d="M10 15c-2.758 0-5-2.242-5-5s2.242-5 5-5 5 2.242 5 5-2.242 5-5 5zm0-7.5A2.503 2.503 0 0 0 7.5 10c0 1.379 1.121 2.5 2.5 2.5s2.5-1.121 2.5-2.5-1.121-2.5-2.5-2.5z"/>
        <path d="M15 20H5c-2.57 0-5-2.43-5-5V5c0-2.57 2.43-5 5-5h10c2.57 0 5 2.43 5 5v10c0 2.57-2.43 5-5 5zM5 2.5C3.831 2.5 2.5 3.831 2.5 5v10c0 1.191 1.309 2.5 2.5 2.5h10c1.169 0 2.5-1.331 2.5-2.5V5c0-1.169-1.331-2.5-2.5-2.5H5z"/>
    </g>
</svg>
