<svg xmlns="http://www.w3.org/2000/svg" width="20" height="16" viewBox="0 0 20 16">
    <path fill="#B3B4C1" fill-rule="nonzero" d="M20 1.846c-.75.37-1.5.492-2.375.616.875-.493 1.5-1.231 1.75-2.216-.75.492-1.625.739-2.625.985a4.4 4.4 0 0 0-3-1.231c-2.125 0-4 1.846-4 4.062 0 .369 0 .615.125.861C6.5 4.8 3.375 3.2 1.375.738 1 1.354.875 1.97.875 2.831c0 1.354.75 2.584 1.875 3.323-.625 0-1.25-.246-1.875-.492C.875 7.63 2.25 9.23 4.125 9.6c-.375.123-.75.123-1.125.123-.25 0-.5 0-.75-.123.5 1.6 2 2.83 3.875 2.83C4.75 13.539 3 14.155 1 14.155H0C1.875 15.262 4 16 6.25 16c7.5 0 11.625-6.154 11.625-11.446v-.492C18.75 3.446 19.5 2.708 20 1.846z"/>
</svg>
