<svg xmlns="http://www.w3.org/2000/svg" width="23" height="22" viewBox="0 0 23 22">
    <path fill="#4C69D7" fill-rule="evenodd" d="M11.294.275C5.082.275 0 5.225 0 11.275c0 4.812 3.247 8.937 7.765 10.45.564.137.706-.275.706-.55V19.25c-3.106.688-3.812-1.375-3.812-1.375-.565-1.238-1.27-1.65-1.27-1.65-.989-.688.14-.688.14-.688 1.13.138 1.695 1.1 1.695 1.1.988 1.788 2.682 1.238 3.247.963.14-.688.423-1.238.705-1.513-2.54-.274-5.082-1.237-5.082-5.5 0-1.237.424-2.2 1.13-2.887-.142-.275-.565-1.375.14-2.888 0 0 .989-.275 3.107 1.1.847-.274 1.835-.412 2.823-.412s1.977.138 2.824.412c2.117-1.375 3.106-1.1 3.106-1.1.564 1.513.282 2.613.14 2.888.707.825 1.13 1.788 1.13 2.888 0 4.262-2.682 5.087-5.223 5.362.423.55.847 1.238.847 2.2v3.025c0 .275.14.688.847.55 4.517-1.513 7.764-5.638 7.764-10.45-.14-6.05-5.223-11-11.435-11z"/>
</svg>
