<svg xmlns="http://www.w3.org/2000/svg" width="22" height="22" viewBox="0 0 22 22">
    <g fill="none" fill-rule="nonzero">
        <path fill="#231F20" d="M10.133 12.74l-.874-2.607 2.608-.874.874 2.608z" opacity=".5"/>
        <path fill="#231F20" d="M10.133 12.74l-.874-2.607 2.608-.874.874 2.608z" opacity=".5"/>
        <path fill="#4C69D7" d="M21.04 7.974C18.84.409 15.54-1.379 7.975.959.409 3.16-1.379 6.461.959 14.026c2.2 7.565 5.502 9.353 13.067 7.015 7.565-2.2 9.353-5.502 7.015-13.067zm-3.85 4.952l-1.376.412.55 1.513c.138.55-.137 1.238-.687 1.376-.138 0-1.1.275-1.376-.688l-.55-1.513-3.026 1.1.55 1.376c.138.55-.137 1.238-.688 1.375-.137 0-1.1.275-1.375-.687l-.55-1.513-1.376.412c-.825.275-1.238-.275-1.375-.688-.138-.55.137-1.237.688-1.375l1.375-.413-1.1-2.75-1.376.412c-.688.275-1.375-.275-1.513-.688-.137-.687.138-1.238.825-1.513l1.376-.412-.55-1.513c-.138-.55.137-1.238.825-1.376.55-.137 1.238.138 1.375.688l.55 1.513 2.89-1.1-.551-1.376c-.138-.55.137-1.238.688-1.375.55-.138 1.238.137 1.375.687l.55 1.513 1.376-.412c.55-.138 1.238.137 1.375.688.138.55-.137 1.237-.688 1.375l-1.375.413 1.1 2.75 1.376-.412c.55-.138 1.238.137 1.375.688.275.687 0 1.238-.687 1.513z"/>
    </g>
</svg>
