<svg xmlns="http://www.w3.org/2000/svg" width="22" height="20" viewBox="0 0 22 20">
    <path fill="#4C69D7" fill-rule="nonzero" d="M22 2.857c-.825.429-1.65.572-2.613.714C20.35 3 21.037 2.143 21.313 1c-.825.571-1.787.857-2.887 1.143-.825-.857-2.063-1.429-3.3-1.429-2.338 0-4.4 2.143-4.4 4.715 0 .428 0 .714.138 1-3.713-.143-7.15-2-9.35-4.858C1.1 2.286.962 3 .962 4c0 1.571.825 3 2.062 3.857-.688 0-1.375-.286-2.063-.571 0 2.285 1.513 4.143 3.575 4.571C4.125 12 3.712 12 3.3 12c-.275 0-.55 0-.825-.143.55 1.857 2.2 3.286 4.262 3.286-1.512 1.286-3.437 2-5.637 2H0c2.063 1.286 4.4 2.143 6.875 2.143 8.25 0 12.788-7.143 12.788-13.286v-.571c.962-.715 1.787-1.572 2.337-2.572z"/>
</svg>
