<svg xmlns="http://www.w3.org/2000/svg" width="22" height="20" viewBox="0 0 22 20">
    <path fill="#4C69D7" fill-rule="nonzero" d="M22 9.706c0-1.618-1.238-2.794-2.613-2.794-.687 0-1.237.294-1.65.588a12.937 12.937 0 0 0-5.912-1.912l1.1-3.823 3.162.735c.138 1.176 1.1 2.206 2.2 2.206 1.238 0 2.2-1.03 2.2-2.353 0-1.324-.962-2.353-2.2-2.353-.825 0-1.65.588-1.924 1.324L12.65.294a.75.75 0 0 0-.688.441l-1.374 4.853c-2.338 0-4.538.736-6.325 1.765-.413-.294-.963-.588-1.65-.588C1.237 6.765 0 8.088 0 9.705c0 1.03.412 1.766 1.1 2.354v.735c0 1.912 1.1 3.824 3.025 5.147C5.912 19.265 8.387 20 11 20c2.613 0 5.087-.735 6.875-2.059 1.925-1.323 3.025-3.088 3.025-5.147v-.588c.55-.735 1.1-1.618 1.1-2.5zM6.187 11.324c0-.883.688-1.618 1.513-1.618s1.513.735 1.513 1.618c0 .882-.688 1.617-1.513 1.617s-1.513-.735-1.513-1.617zm8.388 4.705c-.825.883-1.925 1.177-3.575 1.177-1.65 0-2.887-.441-3.575-1.177-.275-.294-.275-.588 0-.882.275-.294.55-.294.825 0 .55.588 1.375.882 2.75.882s2.2-.294 2.75-.882c.275-.294.55-.294.825 0 .275.294.275.735 0 .882zm-.275-3.088c-.825 0-1.513-.735-1.513-1.617 0-.883.688-1.618 1.513-1.618s1.512.735 1.512 1.618c0 .882-.687 1.617-1.512 1.617z"/>
</svg>
