<svg xmlns="http://www.w3.org/2000/svg" width="22" height="22" viewBox="0 0 22 22">
    <path fill="#4C69D7" fill-rule="nonzero" d="M20.625 0H1.375C.615 0 0 .616 0 1.375v19.25C0 21.385.616 22 1.375 22h19.25c.76 0 1.375-.616 1.375-1.375V1.375C22 .615 21.384 0 20.625 0zm-2.349 5.213l-1.18 1.131a.345.345 0 0 0-.137.332v8.312a.345.345 0 0 0 .138.33l1.152 1.133v.248h-5.796v-.248l1.194-1.16c.117-.117.117-.15.117-.331V8.24l-3.314 8.43h-.452L6.134 8.242v5.645a.78.78 0 0 0 .214.65l1.553 1.883v.25H3.5v-.25l1.552-1.884a.752.752 0 0 0 .2-.649v-6.53a.572.572 0 0 0-.189-.482L3.69 5.213v-.25h4.286l3.3 7.265 2.918-7.264h4.085l-.002.249z"/>
</svg>
