<svg xmlns="http://www.w3.org/2000/svg" width="19" height="19" viewBox="0 0 19 19">
    <path fill="#B3B4C1" fill-rule="nonzero" d="M18.056 0H.826A.81.81 0 0 0 0 .831v17.457c0 .356.354.712.826.712h17.348a.81.81 0 0 0 .826-.831V.83C18.882.356 18.528 0 18.056 0zM5.546 16.15H2.833V7.125h2.833v9.025h-.118zM4.249 5.938c-.944 0-1.652-.832-1.652-1.663 0-.95.708-1.663 1.652-1.663.945 0 1.653.713 1.653 1.663-.118.831-.826 1.662-1.653 1.662zM16.05 16.15h-2.833v-4.394c0-1.069 0-2.375-1.416-2.375s-1.652 1.188-1.652 2.375v4.513H7.317V7.125h2.714v1.188c.354-.713 1.298-1.426 2.596-1.426 2.833 0 3.305 1.9 3.305 4.276v4.987h.118z"/>
</svg>
