<svg xmlns="http://www.w3.org/2000/svg" width="20" height="20" viewBox="0 0 20 20">
    <g fill="#4C69D7" fill-rule="nonzero">
        <path d="M10 8C7.733 8 6 6.267 6 4s1.733-4 4-4 4 1.733 4 4-1.733 4-4 4zM12.5 20h-5v-4.889L5 12.667V9h10v3.667l-2.5 2.444zM2.5 6A2.507 2.507 0 0 1 0 3.5C0 2.125 1.125 1 2.5 1S5 2.125 5 3.5 3.875 6 2.5 6zM3.75 13.5V8H0v3.75L1.25 13v5H5v-3.25zM17.5 6C18.875 6 20 4.875 20 3.5S18.875 1 17.5 1A2.507 2.507 0 0 0 15 3.5C15 4.875 16.125 6 17.5 6zM16.25 13.5V8H20v3.75L18.75 13v5H15v-3.25z"/>
    </g>
</svg>
