<svg xmlns="http://www.w3.org/2000/svg" width="18" height="20" viewBox="0 0 18 20">
    <path fill="#4C69D7" fill-rule="nonzero" d="M14.143 7.5C16.269 7.5 18 5.817 18 3.75S16.27 0 14.143 0c-2.127 0-3.857 1.683-3.857 3.75 0 .279.037.549.096.811l-4.14 2.515a3.886 3.886 0 0 0-2.385-.826C1.731 6.25 0 7.933 0 10c0 2.068 1.73 3.75 3.857 3.75.905 0 1.727-.318 2.385-.826l4.14 2.515a3.68 3.68 0 0 0-.096.811c0 2.067 1.73 3.75 3.857 3.75C16.269 20 18 18.317 18 16.25c0-2.068-1.73-3.75-3.857-3.75-.905 0-1.727.318-2.385.826l-4.14-2.515A3.68 3.68 0 0 0 7.714 10a3.68 3.68 0 0 0-.096-.811l4.14-2.515c.658.508 1.48.826 2.385.826z"/>
</svg>
