<svg xmlns="http://www.w3.org/2000/svg" width="18" height="20" viewBox="0 0 18 20">
    <g fill="#4C69D7" fill-rule="nonzero">
        <path d="M15.136 10.833c-.724 0-1.42-.172-2.045-.499-.626.327-1.321.5-2.046.5-.724 0-1.42-.173-2.045-.5-.626.327-1.321.5-2.045.5-.725 0-1.42-.173-2.046-.499a4.411 4.411 0 0 1-2.045.498c-.432 0-.84-.062-1.228-.171v8.505c0 .46.367.833.819.833h4.909v-4.167h3.272V20h4.91a.826.826 0 0 0 .818-.833v-8.505c-.387.109-.796.171-1.228.171zM17.863 5.372l-3.273-5A.814.814 0 0 0 13.91 0H4.09a.814.814 0 0 0-.68.372l-3.273 5A.846.846 0 0 0 0 5.833c0 1.963 1.177 3.334 2.864 3.334.8 0 1.525-.336 2.045-.878.52.542 1.245.878 2.046.878.8 0 1.525-.336 2.045-.878.52.542 1.244.878 2.045.878.801 0 1.526-.336 2.046-.878.52.542 1.244.878 2.045.878C16.823 9.167 18 7.796 18 5.833a.846.846 0 0 0-.137-.461z"/>
    </g>
</svg>
