<svg xmlns="http://www.w3.org/2000/svg" width="18" height="17" viewBox="0 0 18 17">
    <g fill="#4C69D7" fill-rule="nonzero">
        <path d="M18 0c-3.288.218-6.027 1.197-8.11 2.612C7.59 1.524 4.85 1.96 2.986 3.918c-.328.327-.657.762-.986 1.198l2.74 2.72a42.622 42.622 0 0 0-1.206 2.178l4.493 4.462s.877-.326 2.192-1.197L12.96 16a3.421 3.421 0 0 0 1.205-.98c1.863-1.85 2.302-4.68 1.315-6.966C16.795 5.878 17.781 3.265 18 0zM.619 13.597c.795-.796 1.989-.796 2.784 0 .796.795.796 1.989 0 2.784-.795.796-3.38.597-3.38.597s-.2-2.685.596-3.381z"/>
    </g>
</svg>
