<svg xmlns="http://www.w3.org/2000/svg" width="19" height="16" viewBox="0 0 19 16">
    <path fill="#DC2398" fill-rule="nonzero" d="M18.75.17c-.267-.214-.699-.233-1.44-.019-.514.156-5.084 1.794-9.118 3.373A249.759 249.759 0 0 0 1.277 6.35C.886 6.467.042 6.818.001 7.364c-.02.351.288.663.885.916.638.312 3.458 1.209 4.055 1.384.205.663 1.42 4.543 1.481 4.776.083.351.33.546.453.624a.458.458 0 0 0 .35.136.845.845 0 0 0 .453-.155c.761-.585 2.079-1.891 2.45-2.262 1.625 1.21 3.395 2.554 3.56 2.71.411.332.823.507 1.193.507.124 0 .247-.02.37-.058.433-.137.742-.527.845-1.053 0-.02.02-.098.061-.234.7-2.885 1.256-5.42 1.709-7.544.432-2.086.782-4.133.988-5.225.04-.273.082-.487.103-.623.061-.39.102-.839-.206-1.092zM5 9.25l9.835-6.153c.02-.02.062-.039.083-.058.02 0 .02-.02.04-.02.021 0 .021 0 .042-.019-.02.02-.041.078-.082.117l-2.495 2.2c-1.732 1.499-4 3.465-5.505 4.75 0 .02-.021.04-.021.04-.02.038-.02.038-.041.058v.039c-.103 1.09-.289 2.959-.371 3.796-.083-.253-1.238-3.972-1.485-4.75z"/>
</svg>
