<svg xmlns="http://www.w3.org/2000/svg" width="20" height="20" viewBox="0 0 20 20">
    <g fill="#4C69D7" fill-rule="nonzero">
        <path d="M10 0C4.486 0 0 4.486 0 10s4.486 10 10 10 10-4.486 10-10S15.514 0 10 0zm0 18.333a8.29 8.29 0 0 1-5.448-2.042c.006-.011.016-.02.021-.031 1.377-2.307.511-3.716-.128-4.35a5.93 5.93 0 0 0-.56-.474c-.517-.403-.86-.668-.86-1.436 0-.362.2-.503 1.197-.843.685-.235 1.46-.5 1.961-1.147 1.163-1.503-.115-3.822-.384-4.272a7.554 7.554 0 0 0-.442-.655 8.287 8.287 0 0 1 4.355-1.402c.26.44.689.812 1.11 1.175.36.31.932.44 1.226.807.169.21.087.615.093.88.011.525.33 1.288 1.403 1.288.048 0 .097-.002.148-.005.415-.03 1.71-.326 3.011-.756a8.279 8.279 0 0 1 1.63 4.93c0 4.595-3.738 8.333-8.333 8.333z"/>
        <path d="M12.928 7.42c-1.313 0-2.654.623-3.336 1.552-.457.623-.59 1.344-.375 2.03.429 1.368.47 2.175.202 3.079-.238.803-.261 1.968 1.1 2.523.256.105.538.159.834.159 1.012 0 2.21-.626 3.287-1.719 1.295-1.312 2.057-2.92 2.038-4.304-.025-1.862-1.672-3.32-3.75-3.32z"/>
    </g>
</svg>
